<?xml version="1.0" encoding="UTF-8"?>
<svg width="700pt" height="700pt" version="1.1" viewBox="0 0 700 700" xmlns="http://www.w3.org/2000/svg">
 <path d="m87.434-0.015625c-4.6445 0.015625-9.0859 1.8789-12.355 5.1719-3.2695 3.2969-5.0977 7.7539-5.0781 12.395v212.26c0.019531 4.6172 1.8594 9.0391 5.125 12.305s7.6875 5.1055 12.309 5.125h212.39c4.6172-0.019531 9.0391-1.8594 12.305-5.125s5.1094-7.6875 5.1289-12.305v-212.26c0.015626-4.6406-1.8125-9.0977-5.0781-12.395-3.2695-3.293-7.7148-5.1562-12.355-5.1719zm312.74 0c-4.6641-0.019531-9.1445 1.8242-12.441 5.125-3.3008 3.2969-5.1445 7.7773-5.1289 12.441v212.26c0.019531 4.6406 1.8828 9.082 5.1758 12.352 3.2969 3.2695 7.7539 5.0977 12.395 5.0781h212.26c4.6406 0.019531 9.0977-1.8086 12.391-5.0781 3.2969-3.2695 5.1562-7.7109 5.1758-12.352v-212.26c0.019531-4.6641-1.8281-9.1445-5.125-12.441-3.3008-3.3008-7.7773-5.1445-12.441-5.125zm-233.28 88.25h53.457c4.8281 0 8.7148 3.8867 8.7148 8.7148v53.422c0 4.8281-3.8867 8.7148-8.7148 8.7148h-53.457c-4.8281 0-8.7148-3.8867-8.7148-8.7148v-53.422c0-4.8281 3.8867-8.7148 8.7148-8.7148zm312.71 0h53.422c4.8281 0 8.7148 3.8867 8.7148 8.7148v53.422c0 4.8281-3.8867 8.7148-8.7148 8.7148l-53.422 0.003906c-4.8281 0-8.7148-3.8867-8.7148-8.7148v-53.422c0-4.8281 3.8867-8.7148 8.7148-8.7148zm-81.176 224.49c-0.011719 0.011719-0.023438 0.023438-0.035156 0.035157-4.3281 0.42578-8.3398 2.4453-11.262 5.668-2.918 3.2227-4.5312 7.4141-4.5312 11.762v106.2c0.019531 4.6406 1.8828 9.082 5.1758 12.352 3.2969 3.2695 7.7539 5.0977 12.395 5.0781h88.629v88.73c0.007812 4.625 1.8477 9.0547 5.1133 12.328 3.2656 3.2734 7.6953 5.1211 12.316 5.1367h106.2c4.6445 0.019531 9.1094-1.8125 12.402-5.0898 3.2969-3.2734 5.1562-7.7266 5.1641-12.375v-106.16c0.019531-4.668-1.8281-9.1445-5.125-12.445-3.3008-3.2969-7.7773-5.1406-12.441-5.125h-88.629v-88.629c-0.019532-4.6406-1.8789-9.082-5.1758-12.352-3.293-3.2695-7.7539-5.0977-12.395-5.0781h-106.06c-0.58203-0.039063-1.1602-0.050781-1.7422-0.035157zm-312.68 0.035157c-4.3203 0.43359-8.3281 2.457-11.238 5.6797-2.9141 3.2188-4.5234 7.4102-4.5195 11.75v212.36c0.007812 4.625 1.8477 9.0547 5.1133 12.328 3.2656 3.2734 7.6953 5.1211 12.32 5.1367h212.39c4.625-0.015625 9.0508-1.8633 12.316-5.1367 3.2656-3.2734 5.1055-7.7031 5.1172-12.328v-212.36c-0.019531-4.6172-1.8633-9.0391-5.1289-12.305s-7.6875-5.1055-12.305-5.125h-212.39c-0.55859-0.027344-1.1172-0.027344-1.6758 0zm81.145 88.148h53.457c4.8281 0 8.7148 3.8867 8.7148 8.7148v53.422c0 4.8281-3.8867 8.7148-8.7148 8.7148h-53.457c-4.8281 0-8.7148-3.8867-8.7148-8.7148v-53.422c0-4.8281 3.8867-8.7148 8.7148-8.7148z"/>
</svg>
